# 3ds Max Wavefront OBJ Exporter v0.97b - (c)2007 guruware
# File Created: 05.12.2012 22:05:26

mtllib cornell-glossy/CornellBox-Glossy.mtl


#
# object floor
#

v  1.0000 0.0000 -1.0400
v  -0.9900 0.0000 -1.0400
v  -1.0100 0.0000 0.9900
v  1.0000 0.0000 0.9900
# 4 vertices

vn 0.0000 1.0000 -0.0000
# 1 vertex normals

vt 0.0000 0.0000 0.0000
# 1 texture coords

g floor
usemtl floor
s 1
f -4/-1/-1 -3/-1/-1 -2/-1/-1
f -2/-1/-1 -1/-1/-1 -4/-1/-1
# 2 faces

#
# object ceiling
#

v  1.0000 1.5900 -1.0400
v  1.0000 1.5900 0.9900
v  -1.0200 1.5900 0.9900
v  -1.0200 1.5900 -1.0400
# 4 vertices

vn 0.0000 -1.0000 -0.0000
# 1 vertex normals

vt 0.0000 0.0000 0.0000
# 1 texture coords

g ceiling
usemtl ceiling
s 1
f -4/-1/-1 -3/-1/-1 -2/-1/-1
f -2/-1/-1 -1/-1/-1 -4/-1/-1
# 2 faces

#
# object backWall
#

v  1.0000 1.5900 -1.0400
v  -1.0200 1.5900 -1.0400
v  -0.9900 0.0000 -1.0400
v  1.0000 0.0000 -1.0400
# 4 vertices

vn 0.0000 0.0000 1.0000
# 1 vertex normals

vt 0.0000 0.0000 0.0000
# 1 texture coords

g backWall
usemtl backWall
s 1
f -4/-1/-1 -3/-1/-1 -2/-1/-1
f -2/-1/-1 -1/-1/-1 -4/-1/-1
# 2 faces

#
# object rightWall
#

v  1.0000 1.5900 0.9900
v  1.0000 1.5900 -1.0400
v  1.0000 0.0000 -1.0400
v  1.0000 0.0000 0.9900
# 4 vertices

vn -1.0000 0.0000 -0.0000
# 1 vertex normals

vt 0.0000 0.0000 0.0000
# 1 texture coords

g rightWall
usemtl rightWall
s 1
f -4/-1/-1 -3/-1/-1 -2/-1/-1
f -2/-1/-1 -1/-1/-1 -4/-1/-1
# 2 faces

#
# object leftWall
#

v  -1.0200 1.5900 -1.0400
v  -1.0200 1.5900 0.9900
v  -1.0100 0.0000 0.9900
v  -0.9900 0.0000 -1.0400
# 4 vertices

vn 0.9999 0.0135 0.0057
vn 1.0000 0.0063 -0.0000
vn 0.9999 0.0116 0.0042
vn 0.9998 0.0189 0.0098
# 4 vertex normals

vt 0.0000 0.0000 0.0000
# 1 texture coords

g leftWall
usemtl leftWall
s 1
f -4/-1/-4 -3/-1/-3 -2/-1/-2
f -2/-1/-2 -1/-1/-1 -4/-1/-4
# 2 faces

#
# object light
#

v  0.2300 1.5800 -0.2200
v  0.2300 1.5800 0.1600
v  -0.2400 1.5800 0.1600
v  -0.2400 1.5800 -0.2200
# 4 vertices

vn 0.0000 -1.0000 -0.0000
# 1 vertex normals

vt 0.0000 0.0000 0.0000
# 1 texture coords

g light
usemtl light
s 1
f -4/-1/-1 -3/-1/-1 -2/-1/-1
f -2/-1/-1 -1/-1/-1 -4/-1/-1
# 2 faces
